<svg width="1160" height="600" viewBox="0 0 1160 600" fill="none" xmlns="http://www.w3.org/2000/svg">
<rect x="2" y="2" width="1156" height="596" rx="30" fill="#232323" stroke="white" stroke-width="4"/>
<path d="M524.336 376V358.867H527.137V373.598H534.391V376H524.336ZM548.547 369.496C548.547 371.613 548.004 373.266 546.918 374.453C545.832 375.641 544.32 376.234 542.383 376.234C541.172 376.234 540.102 375.961 539.172 375.414C538.242 374.867 537.527 374.082 537.027 373.059C536.527 372.035 536.277 370.848 536.277 369.496C536.277 367.395 536.816 365.754 537.895 364.574C538.973 363.395 540.492 362.805 542.453 362.805C544.328 362.805 545.812 363.41 546.906 364.621C548 365.824 548.547 367.449 548.547 369.496ZM539.113 369.496C539.113 372.488 540.219 373.984 542.43 373.984C544.617 373.984 545.711 372.488 545.711 369.496C545.711 366.535 544.609 365.055 542.406 365.055C541.25 365.055 540.41 365.438 539.887 366.203C539.371 366.969 539.113 368.066 539.113 369.496ZM559.832 376L559.281 374.195H559.188C558.562 374.984 557.934 375.523 557.301 375.812C556.668 376.094 555.855 376.234 554.863 376.234C553.59 376.234 552.594 375.891 551.875 375.203C551.164 374.516 550.809 373.543 550.809 372.285C550.809 370.949 551.305 369.941 552.297 369.262C553.289 368.582 554.801 368.211 556.832 368.148L559.07 368.078V367.387C559.07 366.559 558.875 365.941 558.484 365.535C558.102 365.121 557.504 364.914 556.691 364.914C556.027 364.914 555.391 365.012 554.781 365.207C554.172 365.402 553.586 365.633 553.023 365.898L552.133 363.93C552.836 363.562 553.605 363.285 554.441 363.098C555.277 362.902 556.066 362.805 556.809 362.805C558.457 362.805 559.699 363.164 560.535 363.883C561.379 364.602 561.801 365.73 561.801 367.27V376H559.832ZM555.73 374.125C556.73 374.125 557.531 373.848 558.133 373.293C558.742 372.73 559.047 371.945 559.047 370.938V369.812L557.383 369.883C556.086 369.93 555.141 370.148 554.547 370.539C553.961 370.922 553.668 371.512 553.668 372.309C553.668 372.887 553.84 373.336 554.184 373.656C554.527 373.969 555.043 374.125 555.73 374.125ZM570.016 376.234C568.398 376.234 567.137 375.648 566.23 374.477C565.324 373.305 564.871 371.66 564.871 369.543C564.871 367.418 565.328 365.766 566.242 364.586C567.164 363.398 568.438 362.805 570.062 362.805C571.766 362.805 573.062 363.434 573.953 364.691H574.094C573.961 363.762 573.895 363.027 573.895 362.488V357.766H576.66V376H574.504L574.023 374.301H573.895C573.012 375.59 571.719 376.234 570.016 376.234ZM570.754 374.008C571.887 374.008 572.711 373.691 573.227 373.059C573.742 372.418 574.008 371.383 574.023 369.953V369.566C574.023 367.934 573.758 366.773 573.227 366.086C572.695 365.398 571.863 365.055 570.73 365.055C569.762 365.055 569.016 365.449 568.492 366.238C567.969 367.02 567.707 368.137 567.707 369.59C567.707 371.027 567.961 372.125 568.469 372.883C568.977 373.633 569.738 374.008 570.754 374.008ZM583.352 376H580.598V363.039H583.352V376ZM580.434 359.605C580.434 359.113 580.566 358.734 580.832 358.469C581.105 358.203 581.492 358.07 581.992 358.07C582.477 358.07 582.852 358.203 583.117 358.469C583.391 358.734 583.527 359.113 583.527 359.605C583.527 360.074 583.391 360.445 583.117 360.719C582.852 360.984 582.477 361.117 581.992 361.117C581.492 361.117 581.105 360.984 580.832 360.719C580.566 360.445 580.434 360.074 580.434 359.605ZM598.703 376H595.938V368.031C595.938 367.031 595.734 366.285 595.328 365.793C594.93 365.301 594.293 365.055 593.418 365.055C592.254 365.055 591.402 365.398 590.863 366.086C590.324 366.773 590.055 367.926 590.055 369.543V376H587.301V363.039H589.457L589.844 364.738H589.984C590.375 364.121 590.93 363.645 591.648 363.309C592.367 362.973 593.164 362.805 594.039 362.805C597.148 362.805 598.703 364.387 598.703 367.551V376ZM613.48 363.039V364.551L611.266 364.961C611.469 365.234 611.637 365.57 611.77 365.969C611.902 366.367 611.969 366.789 611.969 367.234C611.969 368.57 611.508 369.621 610.586 370.387C609.664 371.152 608.395 371.535 606.777 371.535C606.363 371.535 605.988 371.504 605.652 371.441C605.059 371.809 604.762 372.238 604.762 372.73C604.762 373.027 604.898 373.25 605.172 373.398C605.453 373.547 605.965 373.621 606.707 373.621H608.969C610.398 373.621 611.484 373.926 612.227 374.535C612.969 375.145 613.34 376.023 613.34 377.172C613.34 378.641 612.734 379.773 611.523 380.57C610.312 381.367 608.562 381.766 606.273 381.766C604.508 381.766 603.16 381.453 602.23 380.828C601.301 380.203 600.836 379.312 600.836 378.156C600.836 377.359 601.086 376.688 601.586 376.141C602.094 375.602 602.801 375.227 603.707 375.016C603.34 374.859 603.035 374.609 602.793 374.266C602.559 373.914 602.441 373.547 602.441 373.164C602.441 372.68 602.578 372.27 602.852 371.934C603.125 371.598 603.531 371.266 604.07 370.938C603.398 370.648 602.852 370.18 602.43 369.531C602.016 368.875 601.809 368.109 601.809 367.234C601.809 365.828 602.25 364.738 603.133 363.965C604.023 363.191 605.289 362.805 606.93 362.805C607.297 362.805 607.68 362.832 608.078 362.887C608.484 362.934 608.789 362.984 608.992 363.039H613.48ZM603.297 378.016C603.297 378.609 603.562 379.066 604.094 379.387C604.633 379.707 605.387 379.867 606.355 379.867C607.855 379.867 608.973 379.652 609.707 379.223C610.441 378.793 610.809 378.223 610.809 377.512C610.809 376.949 610.605 376.547 610.199 376.305C609.801 376.07 609.055 375.953 607.961 375.953H605.875C605.086 375.953 604.457 376.137 603.988 376.504C603.527 376.879 603.297 377.383 603.297 378.016ZM604.48 367.234C604.48 368.047 604.688 368.672 605.102 369.109C605.523 369.547 606.125 369.766 606.906 369.766C608.5 369.766 609.297 368.914 609.297 367.211C609.297 366.367 609.098 365.719 608.699 365.266C608.309 364.805 607.711 364.574 606.906 364.574C606.109 364.574 605.504 364.801 605.09 365.254C604.684 365.707 604.48 366.367 604.48 367.234Z" fill="white"/>
<rect x="229" y="274" width="678" height="51" rx="25.5" fill="#232323" stroke="white" stroke-width="4"/>
<path fill-rule="evenodd" clip-rule="evenodd" d="M489 283H256C246.611 283 239 290.611 239 300C239 309.389 246.611 317 256 317H489V283Z" fill="white"/>
</svg>
