<svg width="1260" height="240" viewBox="0 0 1260 240" fill="none" xmlns="http://www.w3.org/2000/svg">
<path d="M229.091 67.7613V69.9211C228.992 70.167 228.915 70.4208 228.859 70.6797C227.82 78.9568 221.059 84.861 212.648 84.7746C211.265 84.7584 209.883 84.5046 208.443 84.3696C208.309 84.8259 208.17 85.2497 208.061 85.679C206.424 91.89 204.797 98.0992 203.179 104.307C198.717 121.385 194.315 138.476 189.769 155.533C188.258 161.202 186.824 166.834 187.377 172.759C187.387 172.894 187.387 173.029 187.377 173.164C187.284 175.364 185.945 176.871 183.734 177.198C183.1 177.273 182.462 177.301 181.824 177.284H83.2445C74.5627 177.284 65.8818 177.284 57.2018 177.284C54.2754 177.284 52.6199 175.664 52.6008 172.792C52.5872 170.497 52.6172 168.202 52.5845 165.908C52.5758 165.237 52.4842 164.569 52.3117 163.921C50.5645 157.319 48.8008 150.724 47.0208 144.135C41.7954 124.611 36.5772 105.083 31.3663 85.5521C31.0936 84.5424 30.6517 84.4209 29.7299 84.5748C22.8354 85.7249 16.0227 82.4502 12.8563 76.2815C11.929 74.4781 11.5336 72.4048 10.8954 70.4529V66.9514C10.9828 66.8535 11.052 66.7411 11.0999 66.6194C12.9354 57.2326 20.0017 51.9386 29.4545 52.9132C37.9527 53.7744 44.6454 62.5402 43.2681 70.8875C42.7725 74.0504 41.3697 77.0058 39.2263 79.4023L91.1536 123.166C99.2345 96.0565 107.223 69.2596 115.219 42.4277L114.183 42.0066C107.28 39.2178 103.385 33.0977 103.833 25.7303C104.378 16.6324 113.274 9.6403 122.362 11.1521C129.619 12.3616 135.384 18.1712 136.058 24.9366C136.83 32.717 132.843 39.3069 125.629 42.0362C124.674 42.3953 124.519 42.722 124.811 43.683C126.897 50.2783 128.902 56.9114 130.947 63.5067C136.402 81.1445 141.864 98.7822 147.335 116.42C148.012 118.596 148.715 120.764 149.479 123.156L200.397 79.2754C199.988 78.6869 199.655 78.209 199.306 77.7312C196.939 74.3512 196.192 70.569 196.672 66.56C197.544 59.2709 203.954 53.4153 211.126 52.7755C217.159 52.2356 224.397 55.1242 227.375 61.9922C228.213 63.8009 228.545 65.8257 229.091 67.7613Z" fill="#E83765"/>
<path d="M52.5846 218.907V217.493C52.5846 208.494 52.5846 199.495 52.5846 190.496C52.5846 187.216 54.0982 185.729 57.4146 185.729H182.58C185.888 185.729 187.413 187.224 187.413 190.496C187.413 199.495 187.413 208.494 187.413 217.493V218.91L52.5846 218.907Z" fill="#E83765"/>
<path d="M83.7773 149.41C83.7773 151.426 83.418 153.117 82.6992 154.484C81.9883 155.844 80.9414 156.84 79.5586 157.473L83.6836 162.078H79.0312L75.8906 158.234H75.6211C72.9961 158.234 70.9805 157.473 69.5742 155.949C68.168 154.426 67.4648 152.238 67.4648 149.387C67.4648 146.535 68.168 144.359 69.5742 142.859C70.9883 141.352 73.0117 140.598 75.6445 140.598C78.2773 140.598 80.2891 141.355 81.6797 142.871C83.0781 144.387 83.7773 146.566 83.7773 149.41ZM71.2734 149.41C71.2734 151.324 71.6367 152.766 72.3633 153.734C73.0898 154.703 74.1758 155.188 75.6211 155.188C78.5195 155.188 79.9688 153.262 79.9688 149.41C79.9688 145.551 78.5273 143.621 75.6445 143.621C74.1992 143.621 73.1094 144.109 72.375 145.086C71.6406 146.055 71.2734 147.496 71.2734 149.41ZM95.0859 158H91.4648V148.086L91.5 146.457L91.5586 144.676C90.957 145.277 90.5391 145.672 90.3047 145.859L88.3359 147.441L86.5898 145.262L92.1094 140.867H95.0859V158ZM105.832 153.031V150.102H112.125V153.031H105.832ZM132.023 158H120.047V155.48L124.348 151.133C125.621 149.828 126.453 148.926 126.844 148.426C127.234 147.918 127.516 147.449 127.688 147.02C127.859 146.59 127.945 146.145 127.945 145.684C127.945 144.996 127.754 144.484 127.371 144.148C126.996 143.812 126.492 143.645 125.859 143.645C125.195 143.645 124.551 143.797 123.926 144.102C123.301 144.406 122.648 144.84 121.969 145.402L120 143.07C120.844 142.352 121.543 141.844 122.098 141.547C122.652 141.25 123.258 141.023 123.914 140.867C124.57 140.703 125.305 140.621 126.117 140.621C127.188 140.621 128.133 140.816 128.953 141.207C129.773 141.598 130.41 142.145 130.863 142.848C131.316 143.551 131.543 144.355 131.543 145.262C131.543 146.051 131.402 146.793 131.121 147.488C130.848 148.176 130.418 148.883 129.832 149.609C129.254 150.336 128.23 151.371 126.762 152.715L124.559 154.789V154.953H132.023V158ZM145.641 149.434C145.641 152.426 145.148 154.641 144.164 156.078C143.188 157.516 141.68 158.234 139.641 158.234C137.664 158.234 136.172 157.492 135.164 156.008C134.164 154.523 133.664 152.332 133.664 149.434C133.664 146.41 134.152 144.184 135.129 142.754C136.105 141.316 137.609 140.598 139.641 140.598C141.617 140.598 143.109 141.348 144.117 142.848C145.133 144.348 145.641 146.543 145.641 149.434ZM137.262 149.434C137.262 151.535 137.441 153.043 137.801 153.957C138.168 154.863 138.781 155.316 139.641 155.316C140.484 155.316 141.094 154.855 141.469 153.934C141.844 153.012 142.031 151.512 142.031 149.434C142.031 147.332 141.84 145.824 141.457 144.91C141.082 143.988 140.477 143.527 139.641 143.527C138.789 143.527 138.18 143.988 137.812 144.91C137.445 145.824 137.262 147.332 137.262 149.434ZM159.445 158H147.469V155.48L151.77 151.133C153.043 149.828 153.875 148.926 154.266 148.426C154.656 147.918 154.938 147.449 155.109 147.02C155.281 146.59 155.367 146.145 155.367 145.684C155.367 144.996 155.176 144.484 154.793 144.148C154.418 143.812 153.914 143.645 153.281 143.645C152.617 143.645 151.973 143.797 151.348 144.102C150.723 144.406 150.07 144.84 149.391 145.402L147.422 143.07C148.266 142.352 148.965 141.844 149.52 141.547C150.074 141.25 150.68 141.023 151.336 140.867C151.992 140.703 152.727 140.621 153.539 140.621C154.609 140.621 155.555 140.816 156.375 141.207C157.195 141.598 157.832 142.145 158.285 142.848C158.738 143.551 158.965 144.355 158.965 145.262C158.965 146.051 158.824 146.793 158.543 147.488C158.27 148.176 157.84 148.883 157.254 149.609C156.676 150.336 155.652 151.371 154.184 152.715L151.98 154.789V154.953H159.445V158ZM173.156 158H161.18V155.48L165.48 151.133C166.754 149.828 167.586 148.926 167.977 148.426C168.367 147.918 168.648 147.449 168.82 147.02C168.992 146.59 169.078 146.145 169.078 145.684C169.078 144.996 168.887 144.484 168.504 144.148C168.129 143.812 167.625 143.645 166.992 143.645C166.328 143.645 165.684 143.797 165.059 144.102C164.434 144.406 163.781 144.84 163.102 145.402L161.133 143.07C161.977 142.352 162.676 141.844 163.23 141.547C163.785 141.25 164.391 141.023 165.047 140.867C165.703 140.703 166.438 140.621 167.25 140.621C168.32 140.621 169.266 140.816 170.086 141.207C170.906 141.598 171.543 142.145 171.996 142.848C172.449 143.551 172.676 144.355 172.676 145.262C172.676 146.051 172.535 146.793 172.254 147.488C171.98 148.176 171.551 148.883 170.965 149.609C170.387 150.336 169.363 151.371 167.895 152.715L165.691 154.789V154.953H173.156V158Z" fill="white"/>
<path d="M569.091 67.7613V69.9211C568.992 70.167 568.915 70.4208 568.859 70.6797C567.82 78.9568 561.059 84.861 552.648 84.7746C551.265 84.7584 549.883 84.5046 548.443 84.3696C548.309 84.8259 548.17 85.2497 548.061 85.679C546.424 91.89 544.797 98.0992 543.179 104.307C538.717 121.385 534.315 138.476 529.769 155.533C528.258 161.202 526.824 166.834 527.377 172.759C527.387 172.894 527.387 173.029 527.377 173.164C527.284 175.364 525.945 176.871 523.734 177.198C523.1 177.273 522.462 177.301 521.824 177.284H423.244C414.563 177.284 405.882 177.284 397.202 177.284C394.275 177.284 392.62 175.664 392.601 172.792C392.587 170.497 392.617 168.202 392.584 165.908C392.576 165.237 392.484 164.569 392.312 163.921C390.564 157.319 388.801 150.724 387.021 144.135C381.795 124.611 376.577 105.083 371.366 85.5521C371.094 84.5424 370.652 84.4209 369.73 84.5748C362.835 85.7249 356.023 82.4502 352.856 76.2815C351.929 74.4781 351.534 72.4047 350.895 70.4529V66.9514C350.983 66.8535 351.052 66.7411 351.1 66.6194C352.935 57.2326 360.002 51.9386 369.454 52.9132C377.953 53.7744 384.645 62.5402 383.268 70.8875C382.773 74.0504 381.37 77.0058 379.226 79.4023L431.154 123.166C439.234 96.0565 447.223 69.2596 455.219 42.4277L454.183 42.0066C447.28 39.2178 443.385 33.0977 443.833 25.7303C444.378 16.6324 453.274 9.6403 462.362 11.1521C469.619 12.3616 475.384 18.1712 476.058 24.9366C476.83 32.717 472.843 39.3069 465.629 42.0362C464.674 42.3953 464.519 42.722 464.811 43.683C466.897 50.2783 468.902 56.9114 470.947 63.5067C476.402 81.1445 481.864 98.7822 487.335 116.42C488.012 118.596 488.715 120.764 489.479 123.156L540.397 79.2754C539.988 78.6869 539.655 78.209 539.306 77.7312C536.939 74.3512 536.192 70.569 536.672 66.56C537.544 59.2709 543.954 53.4153 551.126 52.7755C557.159 52.2356 564.397 55.1242 567.375 61.9921C568.213 63.8009 568.545 65.8257 569.091 67.7613Z" fill="white"/>
<path d="M392.585 218.907V217.493C392.585 208.494 392.585 199.495 392.585 190.496C392.585 187.216 394.098 185.729 397.415 185.729H522.58C525.888 185.729 527.413 187.224 527.413 190.496C527.413 199.495 527.413 208.494 527.413 217.493V218.91L392.585 218.907Z" fill="white"/>
<path d="M461.101 149.41C461.101 151.426 460.741 153.117 460.023 154.484C459.312 155.844 458.265 156.84 456.882 157.473L461.007 162.078H456.355L453.214 158.234H452.945C450.32 158.234 448.304 157.473 446.898 155.949C445.491 154.426 444.788 152.238 444.788 149.387C444.788 146.535 445.491 144.359 446.898 142.859C448.312 141.352 450.335 140.598 452.968 140.598C455.601 140.598 457.612 141.355 459.003 142.871C460.402 144.387 461.101 146.566 461.101 149.41ZM448.597 149.41C448.597 151.324 448.96 152.766 449.687 153.734C450.413 154.703 451.499 155.188 452.945 155.188C455.843 155.188 457.292 153.262 457.292 149.41C457.292 145.551 455.851 143.621 452.968 143.621C451.523 143.621 450.433 144.109 449.698 145.086C448.964 146.055 448.597 147.496 448.597 149.41ZM475.433 158H463.456V155.48L467.757 151.133C469.03 149.828 469.862 148.926 470.253 148.426C470.644 147.918 470.925 147.449 471.097 147.02C471.269 146.59 471.355 146.145 471.355 145.684C471.355 144.996 471.163 144.484 470.78 144.148C470.405 143.812 469.902 143.645 469.269 143.645C468.605 143.645 467.96 143.797 467.335 144.102C466.71 144.406 466.058 144.84 465.378 145.402L463.409 143.07C464.253 142.352 464.952 141.844 465.507 141.547C466.062 141.25 466.667 141.023 467.323 140.867C467.98 140.703 468.714 140.621 469.527 140.621C470.597 140.621 471.542 140.816 472.362 141.207C473.183 141.598 473.82 142.145 474.273 142.848C474.726 143.551 474.952 144.355 474.952 145.262C474.952 146.051 474.812 146.793 474.53 147.488C474.257 148.176 473.827 148.883 473.241 149.609C472.663 150.336 471.64 151.371 470.171 152.715L467.968 154.789V154.953H475.433V158Z" fill="black"/>
<path d="M909.091 67.7613V69.9211C908.992 70.167 908.915 70.4208 908.859 70.6797C907.82 78.9568 901.059 84.861 892.648 84.7746C891.265 84.7584 889.883 84.5046 888.443 84.3696C888.309 84.8259 888.17 85.2497 888.061 85.679C886.424 91.89 884.797 98.0992 883.179 104.307C878.717 121.385 874.315 138.476 869.769 155.533C868.258 161.202 866.824 166.834 867.377 172.759C867.387 172.894 867.387 173.029 867.377 173.164C867.284 175.364 865.945 176.871 863.734 177.198C863.1 177.273 862.462 177.301 861.824 177.284H763.244C754.563 177.284 745.882 177.284 737.202 177.284C734.275 177.284 732.62 175.664 732.601 172.792C732.587 170.497 732.617 168.202 732.584 165.908C732.576 165.237 732.484 164.569 732.312 163.921C730.564 157.319 728.801 150.724 727.021 144.135C721.795 124.611 716.577 105.083 711.366 85.5521C711.094 84.5424 710.652 84.4209 709.73 84.5748C702.835 85.7249 696.023 82.4502 692.856 76.2815C691.929 74.4781 691.534 72.4047 690.895 70.4529V66.9514C690.983 66.8535 691.052 66.7411 691.1 66.6194C692.935 57.2326 700.002 51.9386 709.454 52.9132C717.953 53.7744 724.645 62.5402 723.268 70.8875C722.773 74.0504 721.37 77.0058 719.226 79.4023L771.154 123.166C779.234 96.0565 787.223 69.2596 795.219 42.4277L794.183 42.0066C787.28 39.2178 783.385 33.0977 783.833 25.7303C784.378 16.6324 793.274 9.6403 802.362 11.1521C809.619 12.3616 815.384 18.1712 816.058 24.9366C816.83 32.717 812.843 39.3069 805.629 42.0362C804.674 42.3953 804.519 42.722 804.811 43.683C806.897 50.2783 808.902 56.9114 810.947 63.5067C816.402 81.1445 821.864 98.7822 827.335 116.42C828.012 118.596 828.715 120.764 829.479 123.156L880.397 79.2754C879.988 78.6869 879.655 78.209 879.306 77.7312C876.939 74.3512 876.192 70.569 876.672 66.56C877.544 59.2709 883.954 53.4153 891.126 52.7755C897.159 52.2356 904.397 55.1242 907.375 61.9921C908.213 63.8009 908.545 65.8257 909.091 67.7613Z" fill="white"/>
<path d="M732.585 218.907V217.493C732.585 208.494 732.585 199.495 732.585 190.496C732.585 187.216 734.098 185.729 737.415 185.729H862.58C865.888 185.729 867.413 187.224 867.413 190.496C867.413 199.495 867.413 208.494 867.413 217.493V218.91L732.585 218.907Z" fill="white"/>
<path d="M801.101 149.41C801.101 151.426 800.741 153.117 800.023 154.484C799.312 155.844 798.265 156.84 796.882 157.473L801.007 162.078H796.355L793.214 158.234H792.945C790.32 158.234 788.304 157.473 786.898 155.949C785.491 154.426 784.788 152.238 784.788 149.387C784.788 146.535 785.491 144.359 786.898 142.859C788.312 141.352 790.335 140.598 792.968 140.598C795.601 140.598 797.612 141.355 799.003 142.871C800.402 144.387 801.101 146.566 801.101 149.41ZM788.597 149.41C788.597 151.324 788.96 152.766 789.687 153.734C790.413 154.703 791.499 155.188 792.945 155.188C795.843 155.188 797.292 153.262 797.292 149.41C797.292 145.551 795.851 143.621 792.968 143.621C791.523 143.621 790.433 144.109 789.698 145.086C788.964 146.055 788.597 147.496 788.597 149.41ZM814.765 144.699C814.765 145.77 814.441 146.68 813.792 147.43C813.144 148.18 812.234 148.695 811.062 148.977V149.047C812.445 149.219 813.491 149.641 814.202 150.312C814.913 150.977 815.269 151.875 815.269 153.008C815.269 154.656 814.671 155.941 813.476 156.863C812.28 157.777 810.573 158.234 808.355 158.234C806.495 158.234 804.847 157.926 803.409 157.309V154.227C804.073 154.562 804.804 154.836 805.601 155.047C806.398 155.258 807.187 155.363 807.968 155.363C809.163 155.363 810.046 155.16 810.616 154.754C811.187 154.348 811.472 153.695 811.472 152.797C811.472 151.992 811.144 151.422 810.487 151.086C809.831 150.75 808.784 150.582 807.347 150.582H806.046V147.805H807.37C808.698 147.805 809.667 147.633 810.277 147.289C810.894 146.938 811.202 146.34 811.202 145.496C811.202 144.199 810.39 143.551 808.765 143.551C808.202 143.551 807.628 143.645 807.042 143.832C806.464 144.02 805.82 144.344 805.109 144.805L803.433 142.309C804.995 141.184 806.859 140.621 809.023 140.621C810.796 140.621 812.195 140.98 813.218 141.699C814.249 142.418 814.765 143.418 814.765 144.699Z" fill="black"/>
<path d="M1249.09 67.7613V69.9211C1248.99 70.167 1248.91 70.4208 1248.86 70.6797C1247.82 78.9568 1241.06 84.861 1232.65 84.7746C1231.27 84.7584 1229.88 84.5046 1228.44 84.3696C1228.31 84.8259 1228.17 85.2497 1228.06 85.679C1226.42 91.89 1224.8 98.0992 1223.18 104.307C1218.72 121.385 1214.32 138.476 1209.77 155.533C1208.26 161.202 1206.82 166.834 1207.38 172.759C1207.39 172.894 1207.39 173.029 1207.38 173.164C1207.28 175.364 1205.95 176.871 1203.73 177.198C1203.1 177.273 1202.46 177.301 1201.82 177.284H1103.24C1094.56 177.284 1085.88 177.284 1077.2 177.284C1074.28 177.284 1072.62 175.664 1072.6 172.792C1072.59 170.497 1072.62 168.202 1072.58 165.908C1072.58 165.237 1072.48 164.569 1072.31 163.921C1070.56 157.319 1068.8 150.724 1067.02 144.135C1061.8 124.611 1056.58 105.083 1051.37 85.5521C1051.09 84.5424 1050.65 84.4209 1049.73 84.5748C1042.84 85.7249 1036.02 82.4502 1032.86 76.2815C1031.93 74.4781 1031.53 72.4047 1030.9 70.4529V66.9514C1030.98 66.8535 1031.05 66.7411 1031.1 66.6194C1032.94 57.2326 1040 51.9386 1049.45 52.9132C1057.95 53.7744 1064.65 62.5402 1063.27 70.8875C1062.77 74.0504 1061.37 77.0058 1059.23 79.4023L1111.15 123.166C1119.23 96.0565 1127.22 69.2596 1135.22 42.4277L1134.18 42.0066C1127.28 39.2178 1123.39 33.0977 1123.83 25.7303C1124.38 16.6324 1133.27 9.6403 1142.36 11.1521C1149.62 12.3616 1155.38 18.1712 1156.06 24.9366C1156.83 32.717 1152.84 39.3069 1145.63 42.0362C1144.67 42.3953 1144.52 42.722 1144.81 43.683C1146.9 50.2783 1148.9 56.9114 1150.95 63.5067C1156.4 81.1445 1161.86 98.7822 1167.34 116.42C1168.01 118.596 1168.72 120.764 1169.48 123.156L1220.4 79.2754C1219.99 78.6869 1219.66 78.209 1219.31 77.7312C1216.94 74.3512 1216.19 70.569 1216.67 66.56C1217.54 59.2709 1223.95 53.4153 1231.13 52.7755C1237.16 52.2356 1244.4 55.1242 1247.38 61.9921C1248.21 63.8009 1248.55 65.8257 1249.09 67.7613Z" fill="white"/>
<path d="M1072.58 218.907V217.493C1072.58 208.494 1072.58 199.495 1072.58 190.496C1072.58 187.216 1074.1 185.729 1077.41 185.729H1202.58C1205.89 185.729 1207.41 187.224 1207.41 190.496C1207.41 199.495 1207.41 208.494 1207.41 217.493V218.91L1072.58 218.907Z" fill="white"/>
<path d="M1141.1 147.41C1141.1 149.426 1140.74 151.117 1140.02 152.484C1139.31 153.844 1138.26 154.84 1136.88 155.473L1141.01 160.078H1136.35L1133.21 156.234H1132.94C1130.32 156.234 1128.3 155.473 1126.9 153.949C1125.49 152.426 1124.79 150.238 1124.79 147.387C1124.79 144.535 1125.49 142.359 1126.9 140.859C1128.31 139.352 1130.34 138.598 1132.97 138.598C1135.6 138.598 1137.61 139.355 1139 140.871C1140.4 142.387 1141.1 144.566 1141.1 147.41ZM1128.6 147.41C1128.6 149.324 1128.96 150.766 1129.69 151.734C1130.41 152.703 1131.5 153.188 1132.94 153.188C1135.84 153.188 1137.29 151.262 1137.29 147.41C1137.29 143.551 1135.85 141.621 1132.97 141.621C1131.52 141.621 1130.43 142.109 1129.7 143.086C1128.96 144.055 1128.6 145.496 1128.6 147.41ZM1155.82 152.449H1153.76V156H1150.22V152.449H1142.91V149.93L1150.42 138.867H1153.76V149.637H1155.82V152.449ZM1150.22 149.637V146.73C1150.22 146.246 1150.24 145.543 1150.28 144.621C1150.32 143.699 1150.35 143.164 1150.37 143.016H1150.28C1149.99 143.656 1149.64 144.281 1149.23 144.891L1146.09 149.637H1150.22Z" fill="black"/>
</svg>
